<?xml version="1.0" encoding="UTF-8"?>
<svg version="1.1" xmlns="http://www.w3.org/2000/svg" width="513" height="513">
<path d="M0 0 C5.85314024 2.57529629 11.71523375 5.13008443 17.57641602 7.68701172 C18.7852243 8.21487274 19.99403259 8.74273376 21.23947144 9.28659058 C33.84359721 14.78630554 46.49900874 20.16382907 59.15844727 25.53466797 C79.48691341 34.16530543 99.76605539 42.90416287 120.01318359 51.72387695 C130.48016244 56.28131981 140.95605122 60.81390265 151.46704102 65.26904297 C152.44039398 65.68244431 153.41374695 66.09584564 154.41659546 66.52177429 C158.95548153 68.44937774 163.49686706 70.37045953 168.04418945 72.27807617 C193.93595723 83.2165857 193.93595723 83.2165857 200.15844727 94.03466797 C200.76327324 97.41342258 200.76327324 97.41342258 200.90036011 101.26356506 C200.94324844 102.35531999 200.94324844 102.35531999 200.98700321 103.46913058 C201.07290045 105.99112815 201.12085731 108.51149416 201.15844727 111.03466797 C201.17244898 111.9663803 201.1864507 112.89809263 201.20087671 113.85803866 C201.29871941 121.69617342 201.29469473 129.53370117 201.2878418 137.37231445 C201.28919928 139.99582951 201.29098116 142.61934438 201.29315186 145.24285889 C201.29756715 151.59063874 201.29665206 157.93840669 201.29373921 164.28618699 C201.29146819 169.45200815 201.29117998 174.61782601 201.29226303 179.78364754 C201.29249288 180.89225529 201.29249288 180.89225529 201.29272737 182.02325915 C201.29304714 183.52532291 201.29337136 185.02738667 201.29369996 186.52945042 C201.29654239 200.57028042 201.29328732 214.61110386 201.2878996 228.65193278 C201.28343362 240.6617573 201.2842082 252.67157214 201.28881836 264.68139648 C201.29418766 278.67513455 201.29626684 292.66886687 201.2932061 306.66260582 C201.29288759 308.15902809 201.29257322 309.65545036 201.29226303 311.15187263 C201.29210876 311.88787069 201.29195448 312.62386874 201.29179553 313.38216976 C201.29093736 318.53259231 201.29237809 323.68301118 201.29474258 328.83343315 C201.29786417 335.78487178 201.2955952 342.73629201 201.28984833 349.68772888 C201.28853542 352.22641024 201.2888896 354.76509315 201.29111099 357.30377388 C201.29986753 368.33513689 201.3056313 379.36865837 200.83786011 390.39198303 C200.8158822 391.10959759 200.79390429 391.82721215 200.77126038 392.56657261 C200.54825149 396.78260155 199.7755737 399.45859449 197.15844727 402.78466797 C195.22167969 404.52661133 195.22167969 404.52661133 193.15844727 406.03466797 C192.51689697 406.51234619 191.87534668 406.99002441 191.21435547 407.48217773 C185.24446454 411.6150707 179.05711777 414.4908281 172.34594727 417.22216797 C171.34241211 417.64691406 170.33887695 418.07166016 169.30493164 418.50927734 C159.7615415 422.45044617 150.08262096 425.38049427 139.72094727 425.84716797 C138.63511353 425.89852905 138.63511353 425.89852905 137.52734375 425.95092773 C118.50693431 426.60361971 101.0115612 418.54732067 83.74926758 411.46240234 C70.31173672 405.96775539 62.12212074 404.99621617 48.35375977 409.94091797 C45.15844727 411.03466797 45.15844727 411.03466797 43.15844727 411.03466797 C43.15844727 412.35466797 43.15844727 413.67466797 43.15844727 415.03466797 C42.49844727 415.36466797 41.83844727 415.69466797 41.15844727 416.03466797 C40.82844727 424.61466797 40.49844727 433.19466797 40.15844727 442.03466797 C39.49844727 442.03466797 38.83844727 442.03466797 38.15844727 442.03466797 C38.24094727 443.25154297 38.32344727 444.46841797 38.40844727 445.72216797 C38.37778228 455.44296971 35.02812246 465.07821793 28.15844727 472.03466797 C23.37422115 476.64616384 18.50887203 479.6834343 12.47094727 482.40966797 C11.65513184 482.78542969 10.83931641 483.16119141 9.9987793 483.54833984 C3.89353338 486.32588361 -2.26553996 488.9785253 -8.46655273 491.53466797 C-9.2705249 491.87288574 -10.07449707 492.21110352 -10.90283203 492.55957031 C-11.67925049 492.87104004 -12.45566895 493.18250977 -13.25561523 493.50341797 C-13.92544434 493.77605469 -14.59527344 494.04869141 -15.28540039 494.32958984 C-23.30610456 496.54198656 -31.7716474 496.19490734 -40.02124023 496.20263672 C-41.89406174 496.20762932 -41.89406174 496.20762932 -43.80471802 496.21272278 C-46.43531935 496.21776602 -49.06592704 496.22013191 -51.6965332 496.2199707 C-54.37303411 496.21988937 -57.04936416 496.22684889 -59.72583008 496.24047852 C-63.61601921 496.2588939 -67.50601173 496.26371118 -71.39624023 496.26513672 C-72.5799118 496.27232224 -73.76358337 496.27950775 -74.98312378 496.28691101 C-85.00876572 496.25964632 -94.06353619 495.10117543 -103.34545898 491.24169922 C-103.99425522 490.97258224 -104.64305145 490.70346527 -105.31150818 490.42619324 C-106.66553531 489.86097022 -108.01728097 489.290251 -109.36669922 488.71411133 C-111.39775638 487.84984722 -113.43795147 487.0106988 -115.48022461 486.17333984 C-128.26263576 480.84070559 -140.65961318 474.22351532 -146.21655273 460.84716797 C-148.02935848 455.96835598 -148.98183848 451.43381307 -148.90405273 446.22216797 C-148.8950293 445.43197266 -148.88600586 444.64177734 -148.87670898 443.82763672 C-148.85930664 442.94011719 -148.85930664 442.94011719 -148.84155273 442.03466797 C-149.50155273 442.03466797 -150.16155273 442.03466797 -150.84155273 442.03466797 C-151.17155273 433.45466797 -151.50155273 424.87466797 -151.84155273 416.03466797 C-152.50155273 415.70466797 -153.16155273 415.37466797 -153.84155273 415.03466797 C-153.84155273 413.71466797 -153.84155273 412.39466797 -153.84155273 411.03466797 C-170.29945895 405.19853101 -180.4268243 405.95883981 -196.59155273 412.78466797 C-199.14670793 413.84715644 -201.70472794 414.90262297 -204.26342773 415.95654297 C-204.88997253 416.21550858 -205.51651733 416.47447418 -206.16204834 416.74128723 C-233.9569932 428.14809211 -255.99613382 428.42597843 -283.7421875 417.10351562 C-306.28535663 407.62760881 -306.28535663 407.62760881 -311.84155273 397.03466797 C-312.21875089 394.47773463 -312.21875089 394.47773463 -312.22186947 391.7041254 C-312.23030941 390.6424015 -312.23874935 389.58067759 -312.24744505 388.48678023 C-312.241435 387.32647982 -312.23542496 386.16617941 -312.22923279 384.97071838 C-312.23461833 383.73336329 -312.24000386 382.49600819 -312.2455526 381.22115749 C-312.25738878 377.78919297 -312.25575857 374.35771369 -312.24838579 370.92576826 C-312.24365968 367.22357062 -312.256159 363.52142531 -312.2664032 359.81924438 C-312.28360746 352.5674359 -312.28442786 345.315714 -312.27919029 338.0638904 C-312.27515042 332.17017293 -312.27658997 326.27648107 -312.28193855 320.38276482 C-312.28268697 319.54424015 -312.2834354 318.70571548 -312.2842065 317.84178097 C-312.28573796 316.13837202 -312.28727631 314.43496308 -312.28882147 312.73155414 C-312.30255237 296.75398725 -312.29710465 280.7764693 -312.28563625 264.79890352 C-312.275703 250.17917652 -312.28864507 235.55957606 -312.31257045 220.93986858 C-312.33694802 205.93084342 -312.34657264 190.92187724 -312.33991772 175.91283268 C-312.33642254 167.4853799 -312.33867722 159.05802446 -312.35616875 150.63058662 C-312.37087397 143.45655585 -312.37154825 136.28269097 -312.35409784 129.10866351 C-312.34557154 125.44812486 -312.34347765 121.78788276 -312.35874939 118.12735939 C-312.3750966 114.15995398 -312.36048111 110.19300865 -312.34275818 106.2256012 C-312.35716569 104.48849667 -312.35716569 104.48849667 -312.37186426 102.71629912 C-312.31457709 96.50366995 -312.02477723 92.75089483 -307.84155273 88.03466797 C-301.88517158 82.19327487 -294.51385808 78.79047332 -286.99389648 75.43701172 C-285.55416222 74.78915962 -285.55416222 74.78915962 -284.08534241 74.1282196 C-273.82845355 69.53757457 -263.48867627 65.14260094 -253.13842773 60.76757812 C-247.22257293 58.26623777 -241.3111226 55.75454296 -235.40014648 53.24169922 C-234.18753143 52.72620514 -232.97491638 52.21071106 -231.72555542 51.67959595 C-219.23590982 46.36292624 -206.78696744 40.95386944 -194.34155273 35.53466797 C-170.59269243 25.19771799 -146.77954538 15.01659937 -122.93547058 4.90139771 C-116.4493802 2.14815333 -109.97238359 -0.62529583 -103.50170898 -3.41455078 C-101.24409791 -4.38450685 -98.98620392 -5.35380012 -96.72814941 -6.32272339 C-95.37767516 -6.90391375 -94.0282504 -7.48755082 -92.68005371 -8.07400513 C-58.52194919 -22.92998727 -32.4940016 -14.30019243 0 0 Z " fill="#9E1AE0" transform="translate(311.841552734375,16.96533203125)"/>
<path d="M0 0 C0.94917801 0.41259567 1.89835602 0.82519135 2.876297 1.25028992 C4.40971992 1.92569572 4.40971992 1.92569572 5.97412109 2.61474609 C7.047603 3.08278152 8.1210849 3.55081696 9.22709656 4.03303528 C11.53348937 5.03923612 13.83891331 6.04766015 16.14346313 7.05807495 C19.7845504 8.65440155 23.42803065 10.24517872 27.07250977 11.83374023 C30.72870461 13.42760629 34.38479101 15.02171594 38.04014587 16.61750793 C47.15690492 20.59707889 56.28762121 24.54222144 65.43505859 28.45068359 C66.78134384 29.02641943 68.12761641 29.60218492 69.47387695 30.17797852 C71.60450162 31.08908007 73.73519497 32.00001992 75.86604309 32.91059875 C85.98668473 37.23576689 96.10155586 41.57441032 106.21740723 45.9107666 C109.81164975 47.45136561 113.40604401 48.99161005 117.00048828 50.53173828 C128.120149 55.29637252 139.23924874 60.06229354 150.35557556 64.83470154 C155.2834134 66.95028704 160.211738 69.06473785 165.14004517 71.17922974 C167.44409711 72.168086 169.74796105 73.15738045 172.05160522 74.14718628 C185.16149772 79.77993615 198.29311334 85.35643994 211.4543457 90.86791992 C212.88720021 91.46831747 214.32003873 92.06875318 215.75286102 92.6692276 C219.20924357 94.11765073 222.66583916 95.56556461 226.12255859 97.01318359 C226.16829685 131.75772106 226.20355785 166.50225167 226.22468925 201.24681272 C226.22719078 205.34504317 226.22977942 209.44327355 226.23242188 213.54150391 C226.23320881 214.76537372 226.23320881 214.76537372 226.23401164 216.01396818 C226.24272364 229.23990612 226.25849796 242.46582674 226.27686419 255.69175439 C226.29554115 269.25417179 226.30667064 282.8165801 226.31073558 296.37900984 C226.31348523 304.75349657 226.322182 313.12793435 226.33839153 321.50240602 C226.34893125 327.23845411 226.35216609 332.97447676 226.34956135 338.71053384 C226.34827533 342.02415609 226.35138063 345.33767402 226.36096954 348.65128517 C226.37084195 352.23710614 226.36855579 355.82271346 226.36306763 359.40853882 C226.37180615 360.99314362 226.37180615 360.99314362 226.38072121 362.60976064 C226.37673911 363.56470973 226.37275702 364.51965882 226.36865425 365.50354576 C226.36941369 366.33209552 226.37017313 367.16064528 226.37095559 368.01430261 C226.12255859 370.01318359 226.12255859 370.01318359 224.12255859 372.01318359 C221.54794692 372.98894966 218.9829669 373.89456539 216.37255859 374.76318359 C209.45997783 377.1262327 202.75889334 379.77062847 196.07568359 382.71630859 C188.56834173 386.01318359 188.56834173 386.01318359 185.12255859 386.01318359 C185.12255859 386.67318359 185.12255859 387.33318359 185.12255859 388.01318359 C177.381629 387.32510096 170.16689158 384.69538512 163.31005859 381.07568359 C158.63885371 378.61968927 153.67709768 377.03607401 148.68505859 375.35693359 C145.42088696 374.12571096 142.440978 372.70139927 139.34521484 371.11474609 C135.02143146 368.97185169 130.57293406 367.12458042 126.12255859 365.26318359 C125.17638672 364.85197266 124.23021484 364.44076172 123.25537109 364.01708984 C115.22489168 360.669203 110.08793054 359.73073479 101.88037109 362.84130859 C99.9966834 363.6343016 98.11911334 364.44196494 96.24755859 365.26318359 C94.37530203 366.06038576 92.50290694 366.85726266 90.63037109 367.65380859 C89.71288086 368.04922852 88.79539062 368.44464844 87.85009766 368.85205078 C84.40830154 370.31724791 80.93906481 371.70573314 77.46191406 373.08447266 C75.28136342 373.95013897 73.10724214 374.82989483 70.93505859 375.71630859 C69.98179687 376.10302734 69.98179687 376.10302734 69.00927734 376.49755859 C67.71918667 377.02107365 66.43016977 377.54724055 65.14208984 378.07568359 C60.34776586 380.01318359 60.34776586 380.01318359 58.12255859 380.01318359 C58.12255859 399.48318359 58.12255859 418.95318359 58.12255859 439.01318359 C50.88318359 442.00380859 43.64380859 444.99443359 36.18505859 448.07568359 C31.37340702 450.06350811 31.37340702 450.06350811 26.56187439 452.05162048 C24.65638313 452.83840528 22.75047303 453.62417613 20.84425354 454.40919495 C16.20960045 456.31873782 11.5799541 458.2376249 6.96582031 460.19628906 C6.18307236 460.52608261 5.4003244 460.85587616 4.59385681 461.19566345 C3.15808235 461.80128773 1.72458729 462.41235834 0.29396057 463.03004456 C-3.06552725 464.44086233 -5.15826982 465.01318359 -8.87744141 465.01318359 C-9.20744141 375.25318359 -9.53744141 285.49318359 -9.87744141 193.01318359 C-18.28160083 189.13434078 -26.59993343 185.40757808 -35.18994141 182.01318359 C-36.18960938 181.61357422 -37.18927734 181.21396484 -38.21923828 180.80224609 C-43.92525304 178.53284947 -49.6554021 176.33536272 -55.40869141 174.18896484 C-64.11730739 170.9396318 -72.78689345 167.59272601 -81.44799805 164.21899414 C-83.18303794 163.54385174 -84.91870952 162.8703303 -86.6550293 162.19848633 C-97.17408533 158.12822889 -107.5977557 153.89344987 -117.94932556 149.41394043 C-126.82499377 145.58124102 -135.7805733 141.9579477 -144.75170898 138.3555603 C-149.8217248 136.31947268 -154.88854829 134.27546741 -159.95556641 132.23193359 C-161.00510498 131.80881393 -162.05464355 131.38569427 -163.13598633 130.94975281 C-177.28317986 125.24207204 -191.40141334 119.4633042 -205.52099609 113.68774414 C-206.49615173 113.28916702 -207.47130737 112.8905899 -208.47601318 112.47993469 C-210.35983444 111.70953092 -212.24319201 110.93799214 -214.1260376 110.16520691 C-218.24921385 108.4763505 -222.37683676 106.80912369 -226.53759766 105.21484375 C-227.59243347 104.80725578 -227.59243347 104.80725578 -228.6685791 104.39143372 C-230.50665385 103.68490577 -232.34909323 102.98976084 -234.19189453 102.2956543 C-236.87744141 101.01318359 -236.87744141 101.01318359 -238.87744141 98.01318359 C-238.87744141 97.02318359 -238.87744141 96.03318359 -238.87744141 95.01318359 C-238.21591064 94.73982178 -237.55437988 94.46645996 -236.87280273 94.18481445 C-218.77259283 86.6871745 -200.77837086 78.95745902 -182.81494141 71.13818359 C-164.59629812 63.20931696 -146.35113807 55.34752598 -128.06494141 47.57568359 C-126.40909027 46.87188568 -126.40909027 46.87188568 -124.7197876 46.15386963 C-123.6131073 45.68350281 -122.506427 45.21313599 -121.36621094 44.72851562 C-119.11733769 43.77265328 -116.86847705 42.81676125 -114.61962891 41.86083984 C-113.50206207 41.38582031 -112.38449524 40.91080078 -111.23306274 40.42138672 C-99.24419359 35.32299894 -87.26898471 30.1928515 -75.29547119 25.05853271 C-71.73604174 23.53294244 -68.17574946 22.00938272 -64.61523438 20.48632812 C-54.30971054 16.07563482 -44.01388091 11.64667691 -33.75244141 7.13427734 C-31.31672408 6.06881526 -28.88055946 5.00438435 -26.44418335 3.94042969 C-24.2616558 2.98217047 -22.08580942 2.00981767 -19.90991211 1.03662109 C-18.624674 0.47467917 -17.33913225 -0.08656902 -16.05322266 -0.64697266 C-14.96952393 -1.12787354 -13.8858252 -1.60877441 -12.76928711 -2.10424805 C-8.04242586 -3.54684859 -4.39600017 -1.92457507 0 0 Z " fill="#D683FE" transform="translate(264.87744140625,28.98681640625)"/>
<path d="M0 0 C0.94917801 0.41259567 1.89835602 0.82519135 2.876297 1.25028992 C4.40971992 1.92569572 4.40971992 1.92569572 5.97412109 2.61474609 C7.047603 3.08278152 8.1210849 3.55081696 9.22709656 4.03303528 C11.53348937 5.03923612 13.83891331 6.04766015 16.14346313 7.05807495 C19.7845504 8.65440155 23.42803065 10.24517872 27.07250977 11.83374023 C30.72870461 13.42760629 34.38479101 15.02171594 38.04014587 16.61750793 C47.15690492 20.59707889 56.28762121 24.54222144 65.43505859 28.45068359 C66.78134384 29.02641943 68.12761641 29.60218492 69.47387695 30.17797852 C71.60450162 31.08908007 73.73519497 32.00001992 75.86604309 32.91059875 C85.98668473 37.23576689 96.10155586 41.57441032 106.21740723 45.9107666 C109.81164975 47.45136561 113.40604401 48.99161005 117.00048828 50.53173828 C128.120149 55.29637252 139.23924874 60.06229354 150.35557556 64.83470154 C155.2834134 66.95028704 160.211738 69.06473785 165.14004517 71.17922974 C167.44409711 72.168086 169.74796105 73.15738045 172.05160522 74.14718628 C190.03321414 81.87310053 208.07297473 89.44400326 226.12255859 97.01318359 C226.12255859 187.10318359 226.12255859 277.19318359 226.12255859 370.01318359 C225.79255859 370.01318359 225.46255859 370.01318359 225.12255859 370.01318359 C225.12255859 280.25318359 225.12255859 190.49318359 225.12255859 98.01318359 C212.47089635 102.7235897 212.47089635 102.7235897 199.96240234 107.75537109 C199.1815477 108.08051193 198.40069305 108.40565277 197.59617615 108.74064636 C195.93892554 109.43097751 194.28217584 110.12251233 192.62591553 110.81521606 C188.12862143 112.69585503 183.62722481 114.5666394 179.12646484 116.43896484 C178.20679932 116.82183151 177.28713379 117.20469818 176.33959961 117.59916687 C167.07157438 121.45559526 157.78660796 125.27023138 148.49755859 129.07568359 C146.8771132 129.73982093 145.2566705 130.40396483 143.63623047 131.06811523 C139.59875324 132.72262923 135.56098079 134.37642156 131.52313232 136.0300293 C124.36813575 138.96035613 117.21381191 141.89232298 110.06005859 144.82568359 C108.87014313 145.31356857 108.87014313 145.31356857 107.65618896 145.81130981 C93.16430547 151.75441298 78.68682832 157.73215377 64.21194458 163.71652222 C48.72021742 170.12096074 33.21761937 176.49840992 17.70458984 182.85107422 C16.94377106 183.16275543 16.18295227 183.47443665 15.39907837 183.79556274 C14.01752458 184.36147609 12.63584787 184.92708954 11.2539978 185.49227905 C5.19869547 187.97254275 -0.83677762 190.49624035 -6.87744141 193.01318359 C-7.20744141 282.44318359 -7.53744141 371.87318359 -7.87744141 464.01318359 C-6.88744141 464.34318359 -5.89744141 464.67318359 -4.87744141 465.01318359 C-6.19744141 465.01318359 -7.51744141 465.01318359 -8.87744141 465.01318359 C-9.20744141 375.25318359 -9.53744141 285.49318359 -9.87744141 193.01318359 C-18.28160083 189.13434078 -26.59993343 185.40757808 -35.18994141 182.01318359 C-36.18960938 181.61357422 -37.18927734 181.21396484 -38.21923828 180.80224609 C-43.92525304 178.53284947 -49.6554021 176.33536272 -55.40869141 174.18896484 C-64.11730739 170.9396318 -72.78689345 167.59272601 -81.44799805 164.21899414 C-83.18303794 163.54385174 -84.91870952 162.8703303 -86.6550293 162.19848633 C-97.17408533 158.12822889 -107.5977557 153.89344987 -117.94932556 149.41394043 C-126.82499377 145.58124102 -135.7805733 141.9579477 -144.75170898 138.3555603 C-149.8217248 136.31947268 -154.88854829 134.27546741 -159.95556641 132.23193359 C-161.00510498 131.80881393 -162.05464355 131.38569427 -163.13598633 130.94975281 C-177.28317986 125.24207204 -191.40141334 119.4633042 -205.52099609 113.68774414 C-206.49615173 113.28916702 -207.47130737 112.8905899 -208.47601318 112.47993469 C-210.35983444 111.70953092 -212.24319201 110.93799214 -214.1260376 110.16520691 C-218.24921385 108.4763505 -222.37683676 106.80912369 -226.53759766 105.21484375 C-227.59243347 104.80725578 -227.59243347 104.80725578 -228.6685791 104.39143372 C-230.50665385 103.68490577 -232.34909323 102.98976084 -234.19189453 102.2956543 C-236.87744141 101.01318359 -236.87744141 101.01318359 -238.87744141 98.01318359 C-238.87744141 97.02318359 -238.87744141 96.03318359 -238.87744141 95.01318359 C-238.21591064 94.73982178 -237.55437988 94.46645996 -236.87280273 94.18481445 C-218.77259283 86.6871745 -200.77837086 78.95745902 -182.81494141 71.13818359 C-164.59629812 63.20931696 -146.35113807 55.34752598 -128.06494141 47.57568359 C-126.40909027 46.87188568 -126.40909027 46.87188568 -124.7197876 46.15386963 C-123.6131073 45.68350281 -122.506427 45.21313599 -121.36621094 44.72851562 C-119.11733769 43.77265328 -116.86847705 42.81676125 -114.61962891 41.86083984 C-113.50206207 41.38582031 -112.38449524 40.91080078 -111.23306274 40.42138672 C-99.24419359 35.32299894 -87.26898471 30.1928515 -75.29547119 25.05853271 C-71.73604174 23.53294244 -68.17574946 22.00938272 -64.61523438 20.48632812 C-54.30971054 16.07563482 -44.01388091 11.64667691 -33.75244141 7.13427734 C-31.31672408 6.06881526 -28.88055946 5.00438435 -26.44418335 3.94042969 C-24.2616558 2.98217047 -22.08580942 2.00981767 -19.90991211 1.03662109 C-18.624674 0.47467917 -17.33913225 -0.08656902 -16.05322266 -0.64697266 C-14.96952393 -1.12787354 -13.8858252 -1.60877441 -12.76928711 -2.10424805 C-8.04242586 -3.54684859 -4.39600017 -1.92457507 0 0 Z " fill="#D075FC" transform="translate(264.87744140625,28.98681640625)"/>
<path d="M0 0 C5.85314024 2.57529629 11.71523375 5.13008443 17.57641602 7.68701172 C18.7852243 8.21487274 19.99403259 8.74273376 21.23947144 9.28659058 C33.84359721 14.78630554 46.49900874 20.16382907 59.15844727 25.53466797 C79.48691341 34.16530543 99.76605539 42.90416287 120.01318359 51.72387695 C130.48016244 56.28131981 140.95605122 60.81390265 151.46704102 65.26904297 C152.44039398 65.68244431 153.41374695 66.09584564 154.41659546 66.52177429 C158.95548153 68.44937774 163.49686706 70.37045953 168.04418945 72.27807617 C193.93595723 83.2165857 193.93595723 83.2165857 200.15844727 94.03466797 C200.76327324 97.41342258 200.76327324 97.41342258 200.90036011 101.26356506 C200.94324844 102.35531999 200.94324844 102.35531999 200.98700321 103.46913058 C201.07290045 105.99112815 201.12085731 108.51149416 201.15844727 111.03466797 C201.17244898 111.9663803 201.1864507 112.89809263 201.20087671 113.85803866 C201.29871941 121.69617342 201.29469473 129.53370117 201.2878418 137.37231445 C201.28919928 139.99582951 201.29098116 142.61934438 201.29315186 145.24285889 C201.29756715 151.59063874 201.29665206 157.93840669 201.29373921 164.28618699 C201.29146819 169.45200815 201.29117998 174.61782601 201.29226303 179.78364754 C201.29249288 180.89225529 201.29249288 180.89225529 201.29272737 182.02325915 C201.29304714 183.52532291 201.29337136 185.02738667 201.29369996 186.52945042 C201.29654239 200.57028042 201.29328732 214.61110386 201.2878996 228.65193278 C201.28343362 240.6617573 201.2842082 252.67157214 201.28881836 264.68139648 C201.29418766 278.67513455 201.29626684 292.66886687 201.2932061 306.66260582 C201.29288759 308.15902809 201.29257322 309.65545036 201.29226303 311.15187263 C201.29210876 311.88787069 201.29195448 312.62386874 201.29179553 313.38216976 C201.29093736 318.53259231 201.29237809 323.68301118 201.29474258 328.83343315 C201.29786417 335.78487178 201.2955952 342.73629201 201.28984833 349.68772888 C201.28853542 352.22641024 201.2888896 354.76509315 201.29111099 357.30377388 C201.29986753 368.33513689 201.3056313 379.36865837 200.83786011 390.39198303 C200.8158822 391.10959759 200.79390429 391.82721215 200.77126038 392.56657261 C200.54825149 396.78260155 199.7755737 399.45859449 197.15844727 402.78466797 C195.22167969 404.52661133 195.22167969 404.52661133 193.15844727 406.03466797 C192.51689697 406.51234619 191.87534668 406.99002441 191.21435547 407.48217773 C185.24446454 411.6150707 179.05711777 414.4908281 172.34594727 417.22216797 C171.34241211 417.64691406 170.33887695 418.07166016 169.30493164 418.50927734 C159.7615415 422.45044617 150.08262096 425.38049427 139.72094727 425.84716797 C138.63511353 425.89852905 138.63511353 425.89852905 137.52734375 425.95092773 C118.50693431 426.60361971 101.0115612 418.54732067 83.74926758 411.46240234 C70.31173672 405.96775539 62.12212074 404.99621617 48.35375977 409.94091797 C45.15844727 411.03466797 45.15844727 411.03466797 43.15844727 411.03466797 C43.15844727 412.35466797 43.15844727 413.67466797 43.15844727 415.03466797 C42.49844727 415.36466797 41.83844727 415.69466797 41.15844727 416.03466797 C40.82844727 424.61466797 40.49844727 433.19466797 40.15844727 442.03466797 C39.49844727 442.03466797 38.83844727 442.03466797 38.15844727 442.03466797 C38.24094727 443.25154297 38.32344727 444.46841797 38.40844727 445.72216797 C38.37778228 455.44296971 35.02812246 465.07821793 28.15844727 472.03466797 C23.37422115 476.64616384 18.50887203 479.6834343 12.47094727 482.40966797 C11.65513184 482.78542969 10.83931641 483.16119141 9.9987793 483.54833984 C3.89353338 486.32588361 -2.26553996 488.9785253 -8.46655273 491.53466797 C-9.2705249 491.87288574 -10.07449707 492.21110352 -10.90283203 492.55957031 C-11.67925049 492.87104004 -12.45566895 493.18250977 -13.25561523 493.50341797 C-13.92544434 493.77605469 -14.59527344 494.04869141 -15.28540039 494.32958984 C-23.30610456 496.54198656 -31.7716474 496.19490734 -40.02124023 496.20263672 C-41.89406174 496.20762932 -41.89406174 496.20762932 -43.80471802 496.21272278 C-46.43531935 496.21776602 -49.06592704 496.22013191 -51.6965332 496.2199707 C-54.37303411 496.21988937 -57.04936416 496.22684889 -59.72583008 496.24047852 C-63.61601921 496.2588939 -67.50601173 496.26371118 -71.39624023 496.26513672 C-72.5799118 496.27232224 -73.76358337 496.27950775 -74.98312378 496.28691101 C-85.00876572 496.25964632 -94.06353619 495.10117543 -103.34545898 491.24169922 C-103.99425522 490.97258224 -104.64305145 490.70346527 -105.31150818 490.42619324 C-106.66553531 489.86097022 -108.01728097 489.290251 -109.36669922 488.71411133 C-111.39775638 487.84984722 -113.43795147 487.0106988 -115.48022461 486.17333984 C-128.26263576 480.84070559 -140.65961318 474.22351532 -146.21655273 460.84716797 C-148.02935848 455.96835598 -148.98183848 451.43381307 -148.90405273 446.22216797 C-148.8950293 445.43197266 -148.88600586 444.64177734 -148.87670898 443.82763672 C-148.85930664 442.94011719 -148.85930664 442.94011719 -148.84155273 442.03466797 C-149.50155273 442.03466797 -150.16155273 442.03466797 -150.84155273 442.03466797 C-151.17155273 433.45466797 -151.50155273 424.87466797 -151.84155273 416.03466797 C-152.50155273 415.70466797 -153.16155273 415.37466797 -153.84155273 415.03466797 C-153.84155273 413.71466797 -153.84155273 412.39466797 -153.84155273 411.03466797 C-170.29945895 405.19853101 -180.4268243 405.95883981 -196.59155273 412.78466797 C-199.14670793 413.84715644 -201.70472794 414.90262297 -204.26342773 415.95654297 C-204.88997253 416.21550858 -205.51651733 416.47447418 -206.16204834 416.74128723 C-233.9569932 428.14809211 -255.99613382 428.42597843 -283.7421875 417.10351562 C-306.28535663 407.62760881 -306.28535663 407.62760881 -311.84155273 397.03466797 C-312.21875089 394.47773463 -312.21875089 394.47773463 -312.22186947 391.7041254 C-312.23030941 390.6424015 -312.23874935 389.58067759 -312.24744505 388.48678023 C-312.241435 387.32647982 -312.23542496 386.16617941 -312.22923279 384.97071838 C-312.23461833 383.73336329 -312.24000386 382.49600819 -312.2455526 381.22115749 C-312.25738878 377.78919297 -312.25575857 374.35771369 -312.24838579 370.92576826 C-312.24365968 367.22357062 -312.256159 363.52142531 -312.2664032 359.81924438 C-312.28360746 352.5674359 -312.28442786 345.315714 -312.27919029 338.0638904 C-312.27515042 332.17017293 -312.27658997 326.27648107 -312.28193855 320.38276482 C-312.28268697 319.54424015 -312.2834354 318.70571548 -312.2842065 317.84178097 C-312.28573796 316.13837202 -312.28727631 314.43496308 -312.28882147 312.73155414 C-312.30255237 296.75398725 -312.29710465 280.7764693 -312.28563625 264.79890352 C-312.275703 250.17917652 -312.28864507 235.55957606 -312.31257045 220.93986858 C-312.33694802 205.93084342 -312.34657264 190.92187724 -312.33991772 175.91283268 C-312.33642254 167.4853799 -312.33867722 159.05802446 -312.35616875 150.63058662 C-312.37087397 143.45655585 -312.37154825 136.28269097 -312.35409784 129.10866351 C-312.34557154 125.44812486 -312.34347765 121.78788276 -312.35874939 118.12735939 C-312.3750966 114.15995398 -312.36048111 110.19300865 -312.34275818 106.2256012 C-312.35716569 104.48849667 -312.35716569 104.48849667 -312.37186426 102.71629912 C-312.31457709 96.50366995 -312.02477723 92.75089483 -307.84155273 88.03466797 C-301.88517158 82.19327487 -294.51385808 78.79047332 -286.99389648 75.43701172 C-285.55416222 74.78915962 -285.55416222 74.78915962 -284.08534241 74.1282196 C-273.82845355 69.53757457 -263.48867627 65.14260094 -253.13842773 60.76757812 C-247.22257293 58.26623777 -241.3111226 55.75454296 -235.40014648 53.24169922 C-234.18753143 52.72620514 -232.97491638 52.21071106 -231.72555542 51.67959595 C-219.23590982 46.36292624 -206.78696744 40.95386944 -194.34155273 35.53466797 C-170.59269243 25.19771799 -146.77954538 15.01659937 -122.93547058 4.90139771 C-116.4493802 2.14815333 -109.97238359 -0.62529583 -103.50170898 -3.41455078 C-101.24409791 -4.38450685 -98.98620392 -5.35380012 -96.72814941 -6.32272339 C-95.37767516 -6.90391375 -94.0282504 -7.48755082 -92.68005371 -8.07400513 C-58.52194919 -22.92998727 -32.4940016 -14.30019243 0 0 Z M-61.43408203 10.85693359 C-62.37652267 11.26093384 -63.31896332 11.66493408 -64.28996277 12.08117676 C-65.83723808 12.75424866 -65.83723808 12.75424866 -67.41577148 13.44091797 C-68.5013887 13.90800171 -69.58700592 14.37508545 -70.70552063 14.85632324 C-73.6894368 16.14121452 -76.67124966 17.43084984 -79.65228271 18.72241211 C-82.81451908 20.09101081 -85.97948447 21.4532667 -89.14428711 22.81591797 C-93.75911668 24.80343991 -98.37320677 26.79265954 -102.98634529 28.78410339 C-114.44690444 33.73120447 -125.92102437 38.64653492 -137.39630127 43.55938721 C-143.20555704 46.04695114 -149.01370217 48.53710597 -154.82202148 51.02685547 C-163.03715859 54.54788451 -171.25286448 58.06758165 -179.46923828 61.58572388 C-206.103917 72.99040814 -232.72779912 84.4193718 -259.32714844 95.90625 C-260.335009 96.34146973 -261.34286957 96.77668945 -262.38127136 97.22509766 C-264.22398709 98.0209392 -266.06661822 98.8169767 -267.90913391 99.61328125 C-275.21367807 102.76861984 -282.52787873 105.90023625 -289.84155273 109.03466797 C-289.84155273 199.45466797 -289.84155273 289.87466797 -289.84155273 383.03466797 C-283.32485361 385.99680393 -277.27702692 388.64600779 -270.60717773 390.99951172 C-265.22090953 393.01555843 -260.00027255 395.47998556 -254.84155273 398.01904297 C-250.22016888 400.20594783 -245.98394037 401.00680025 -240.98461914 399.46020508 C-238.80179524 398.56563658 -236.66776445 397.59269893 -234.52905273 396.59716797 C-232.69637103 395.78156576 -230.86150668 394.97086003 -229.02514648 394.16357422 C-227.94088379 393.68678223 -226.85662109 393.20999023 -225.73950195 392.71875 C-218.187333 389.43507883 -210.56399674 386.31835889 -202.9413147 383.20285034 C-201.05055938 382.42778665 -199.16167461 381.64814308 -197.27474976 380.86380005 C-194.57746458 379.74300896 -191.87443543 378.63728262 -189.16967773 377.53466797 C-188.36397842 377.19648544 -187.55827911 376.85830292 -186.72816467 376.50987244 C-180.81280964 374.12633833 -174.43740224 371.99770133 -168.11889648 373.81982422 C-167.34674805 374.24134766 -166.57459961 374.66287109 -165.77905273 375.09716797 C-161.22839867 377.39798886 -156.68681114 379.29230078 -151.90405273 381.03466797 C-143.91531969 383.97793509 -135.91082381 386.92736688 -128.34155273 390.84716797 C-125.70065085 392.32070585 -125.70065085 392.32070585 -121.84155273 392.03466797 C-121.85043518 392.76716263 -121.85931763 393.49965729 -121.86846924 394.25434875 C-121.94859538 401.15519575 -122.00950699 408.05597329 -122.04880142 414.95716572 C-122.0696825 418.50525559 -122.09800818 422.05296131 -122.14331055 425.60083008 C-122.1950597 429.6790741 -122.21449347 433.75691423 -122.23217773 437.83544922 C-122.25282288 439.11051834 -122.27346802 440.38558746 -122.29473877 441.69929504 C-122.29504089 442.88029282 -122.29534302 444.06129059 -122.2956543 445.27807617 C-122.30453674 446.319543 -122.31341919 447.36100983 -122.3225708 448.43403625 C-122.08011682 451.14719135 -122.08011682 451.14719135 -120.00482178 452.81877136 C-117.18925351 454.40130217 -114.34330549 455.38939163 -111.27905273 456.40966797 C-105.84576484 458.28263367 -100.68258597 460.40879437 -95.48608398 462.85107422 C-92.80583281 464.05065488 -90.11067448 465.05940444 -87.34155273 466.03466797 C-80.44270982 468.46897397 -73.88475747 471.59314993 -67.27905273 474.72216797 C-59.1383046 477.83045362 -53.82326833 478.74472278 -45.69458008 475.11010742 C-44.69120605 474.6314624 -43.68783203 474.15281738 -42.65405273 473.65966797 C-40.39397199 472.64170052 -38.13212626 471.62764613 -35.86889648 470.61669922 C-35.25830383 470.34023056 -34.64771118 470.0637619 -34.01861572 469.77891541 C-25.02279819 465.72176574 -15.85425297 462.06979339 -6.71655273 458.34716797 C-0.81780273 455.93404297 5.08094727 453.52091797 11.15844727 451.03466797 C11.15844727 431.56466797 11.15844727 412.09466797 11.15844727 392.03466797 C15.61344727 390.54966797 15.61344727 390.54966797 20.15844727 389.03466797 C28.58568539 386.19716185 36.80949152 383.41496382 44.69750977 379.26904297 C47.67604868 377.77504567 50.69732631 376.47921495 53.78344727 375.22216797 C54.80696289 374.80322266 55.83047852 374.38427734 56.88500977 373.95263672 C66.61927421 371.22286089 73.87578217 374.99668552 82.72094727 378.84716797 C84.02182275 379.40121153 85.32325212 379.95395648 86.62524414 380.50537109 C90.14321935 381.99930042 93.65120583 383.51569479 97.15844727 385.03466797 C102.49513777 387.33906823 102.49513777 387.33906823 107.87719727 389.53466797 C108.81112305 389.90591797 108.81112305 389.90591797 109.76391602 390.28466797 C110.38911133 390.53216797 111.01430664 390.77966797 111.65844727 391.03466797 C116.52604285 392.96163364 121.35007124 394.9641573 126.15844727 397.03466797 C127.54892372 397.61028258 128.94374338 398.17574212 130.34594727 398.72216797 C130.97887695 398.97353516 131.61180664 399.22490234 132.26391602 399.48388672 C134.46978139 400.22077703 134.46978139 400.22077703 138.15844727 400.03466797 C138.15844727 399.37466797 138.15844727 398.71466797 138.15844727 398.03466797 C139.14844727 397.95216797 140.13844727 397.86966797 141.15844727 397.78466797 C144.75759318 397.26948207 147.52994481 395.92402394 150.73657227 394.20263672 C153.74392155 392.75231827 156.81606374 391.6889781 159.97094727 390.59716797 C170.24482172 387.55263381 170.24482172 387.55263381 179.15844727 382.03466797 C179.25514453 380.57509576 179.28216517 379.11084963 179.28149509 377.64807796 C179.28348614 376.69511992 179.28547719 375.74216188 179.28752857 374.76032633 C179.28315931 373.17135226 179.28315931 373.17135226 179.27870178 371.55027771 C179.27955621 370.43461349 179.28041063 369.31894927 179.28129095 368.16947705 C179.28294901 364.39983402 179.27741906 360.63023468 179.27197266 356.8605957 C179.27169083 354.1708262 179.27180431 351.48105945 179.27241516 348.79129028 C179.27294059 342.98433917 179.26979182 337.17739926 179.26417732 331.37045097 C179.25606488 322.97448479 179.25344737 314.57852405 179.25218933 306.18255437 C179.24999841 292.56204815 179.24333723 278.9415479 179.23388672 265.32104492 C179.22471364 252.08667023 179.2176323 238.85229715 179.21337891 225.61791992 C179.21311618 224.80273285 179.21285346 223.98754578 179.21258277 223.14765608 C179.21127778 219.05827527 179.21001406 214.96889445 179.20877087 210.87951362 C179.198397 176.9312274 179.18077759 142.98294842 179.15844727 109.03466797 C178.2890599 108.6705824 177.41967253 108.30649683 176.52394009 107.93137836 C173.230777 106.55201049 169.93777788 105.17225253 166.64488125 103.79224873 C165.23234052 103.20036309 163.81973867 102.60862332 162.40706921 102.01704502 C148.81375661 96.32441138 135.26112074 90.54013259 121.72094727 84.72216797 C119.32923785 83.69559147 116.93747208 82.66914625 114.5456543 81.64282227 C110.83502726 80.05056998 107.12444477 78.45821441 103.41412354 76.86524963 C94.66034996 73.10709216 85.90418503 69.354547 77.14672852 65.60498047 C35.10734233 47.60423002 35.10734233 47.60423002 17.96704102 40.14599609 C9.34249879 36.39943143 0.70118182 32.69241311 -7.94311523 28.99169922 C-8.89161472 28.58557467 -8.89161472 28.58557467 -9.85927582 28.17124557 C-16.31568027 25.40680657 -22.77254221 22.64344525 -29.23089027 19.88354969 C-32.23949854 18.59753989 -35.24748554 17.31007798 -38.25561523 16.02294922 C-39.3645816 15.54960648 -40.47354797 15.07626373 -41.61611938 14.58857727 C-42.64135712 14.1496666 -43.66659485 13.71075592 -44.72290039 13.25854492 C-45.61836578 12.87583939 -46.51383118 12.49313385 -47.43643188 12.09883118 C-49.84155273 11.03466797 -49.84155273 11.03466797 -51.97396851 9.89567566 C-55.56870993 8.238401 -58.01942465 9.38160919 -61.43408203 10.85693359 Z " fill="#010001" transform="translate(311.841552734375,16.96533203125)"/>
<path d="M0 0 C1.11238541 0.47559357 2.22477081 0.95118713 3.37086487 1.44119263 C6.9632128 2.97863692 10.55191124 4.52440687 14.140625 6.0703125 C16.6051796 7.12754831 19.07052934 8.18292361 21.53588867 9.23828125 C27.46354382 11.77697918 33.3881778 14.32266159 39.31170654 16.87097168 C43.40082492 18.62983164 47.49122802 20.38568803 51.58203125 22.140625 C52.21686432 22.41298477 52.85169739 22.68534454 53.50576782 22.96595764 C55.23818794 23.70915116 56.9706552 24.4522348 58.703125 25.1953125 C59.76692383 25.65188232 60.83072266 26.10845215 61.92675781 26.57885742 C68.06843918 29.21150396 74.21835254 31.82262015 80.390625 34.3828125 C81.06262939 34.66318359 81.73463379 34.94355469 82.42700195 35.23242188 C85.38059688 36.44664706 88.25855626 37.54540824 91.390625 38.1953125 C91.390625 38.8553125 91.390625 39.5153125 91.390625 40.1953125 C92.64101563 40.42992187 93.89140625 40.66453125 95.1796875 40.90625 C101.00215293 42.20442562 106.30217064 44.46503929 111.765625 46.8203125 C112.80332031 47.26036621 113.84101563 47.70041992 114.91015625 48.15380859 C117.03482007 49.05523038 119.1582004 49.95968345 121.28027344 50.8671875 C125.13184008 52.5118125 128.99241683 54.13444929 132.85400391 55.75537109 C136.36817313 57.23071336 139.87939984 58.71297924 143.390625 60.1953125 C143.390625 60.8553125 143.390625 61.5153125 143.390625 62.1953125 C142.25625 62.65421875 141.121875 63.113125 139.953125 63.5859375 C138.43222426 64.20556373 136.91139472 64.82536478 135.390625 65.4453125 C134.27494141 65.89583984 134.27494141 65.89583984 133.13671875 66.35546875 C128.73691632 68.15364887 124.49010973 70.1204111 120.25732422 72.28027344 C117.55527611 73.60479297 114.77422091 74.65281014 111.953125 75.6953125 C104.59766294 78.47272138 97.48959524 81.5529568 90.5078125 85.16796875 C85.15534122 87.76520113 79.61600768 89.90662022 74.078125 92.0703125 C68.75785954 94.17121278 63.62815764 96.47311961 58.5390625 99.09375 C54.07782175 101.3811498 50.51512106 103.1953125 45.390625 103.1953125 C45.390625 103.8553125 45.390625 104.5153125 45.390625 105.1953125 C44.51148438 105.54980469 43.63234375 105.90429688 42.7265625 106.26953125 C30.86121431 111.0905603 19.11791575 116.18655634 7.37854004 121.3044281 C5.55134281 122.0989396 3.72172945 122.88788701 1.89208984 123.67675781 C-0.39640092 124.66925625 -2.67777245 125.67837866 -4.95068359 126.70605469 C-16.22351059 131.68931403 -16.22351059 131.68931403 -23.12646484 129.33789062 C-26.22388148 128.1214813 -29.25736466 126.79987937 -32.296875 125.4453125 C-33.44115967 124.94797607 -34.58544434 124.45063965 -35.7644043 123.93823242 C-38.18062729 122.88790803 -40.59473807 121.83271276 -43.00683594 120.77294922 C-47.51300204 118.79959293 -52.03674513 116.86914906 -56.56225586 114.94067383 C-61.88957321 112.66859872 -67.20900651 110.37820564 -72.52923584 108.08959961 C-74.78294393 107.12069227 -77.03719217 106.15304886 -79.29150391 105.18554688 C-83.45092549 103.40010765 -87.60886574 101.61125337 -91.76596069 99.82040405 C-93.39136971 99.12070551 -95.01719378 98.42197024 -96.64346313 97.72427368 C-104.39402218 94.39809802 -112.08070228 91.05279672 -119.58740234 87.19897461 C-122.35769169 85.82386479 -125.20202465 84.74435644 -128.109375 83.6953125 C-132.98048687 81.87294359 -137.59490008 79.82837527 -142.1953125 77.40625 C-144.6430133 76.17843892 -147.13340308 75.09537373 -149.65527344 74.02978516 C-151.76425051 73.12917501 -153.85721094 72.197147 -155.94921875 71.2578125 C-156.70267578 70.92007813 -157.45613281 70.58234375 -158.23242188 70.234375 C-159.77214031 69.54312588 -161.31120698 68.85042309 -162.84960938 68.15625 C-167.71170349 65.98055631 -172.60372934 64.01761809 -177.609375 62.1953125 C-177.609375 61.5353125 -177.609375 60.8753125 -177.609375 60.1953125 C-176.76375 59.88078125 -175.918125 59.56625 -175.046875 59.2421875 C-167.49577476 56.4206836 -167.49577476 56.4206836 -160.234375 52.9453125 C-156.68400542 51.071926 -153.59819207 50.52771392 -149.609375 50.1953125 C-149.609375 49.5353125 -149.609375 48.8753125 -149.609375 48.1953125 C-148.95453125 47.96457031 -148.2996875 47.73382813 -147.625 47.49609375 C-146.71234375 47.16996094 -145.7996875 46.84382813 -144.859375 46.5078125 C-143.97765625 46.19457031 -143.0959375 45.88132813 -142.1875 45.55859375 C-132.44615601 41.84709915 -122.91332679 37.6094193 -113.359375 33.4453125 C-104.60717051 29.63840172 -95.84367838 25.8593715 -87.05859375 22.12890625 C-86.24284882 21.78244553 -85.42710388 21.4359848 -84.5866394 21.07902527 C-80.38766048 19.29693781 -76.18672974 17.51959988 -71.98339844 15.74780273 C-63.31542039 12.08756131 -54.68961601 8.35486651 -46.11328125 4.484375 C-43.58888515 3.35527962 -41.06374251 2.22787118 -38.5383606 1.10098267 C-36.93433918 0.37908939 -35.33402065 -0.35109556 -33.73776245 -1.08999634 C-31.52659456 -2.11326999 -29.30441747 -3.10781972 -27.078125 -4.09765625 C-26.43714371 -4.40395966 -25.79616241 -4.71026306 -25.13575745 -5.02584839 C-16.4957729 -8.78123952 -7.99128713 -3.45714233 0 0 Z " fill="#A637DE" transform="translate(273.609375,65.8046875)"/>
<path d="M0 0 C1.05999393 28.69535108 0.97980535 57.32951365 0.60510254 86.03833008 C0.53283145 91.69866836 0.46898424 97.35910212 0.40429688 103.01953125 C0.27748622 114.01312573 0.14180767 125.00658941 0 136 C-3.70318119 137.23439373 -4.4923662 136.63829971 -7.99609375 135.11328125 C-9.01421143 134.67604736 -10.0323291 134.23881348 -11.08129883 133.78833008 C-12.18884521 133.30130615 -13.2963916 132.81428223 -14.4375 132.3125 C-15.59983154 131.81065186 -16.76216309 131.30880371 -17.9597168 130.79174805 C-20.41918284 129.72944733 -22.87705788 128.66409261 -25.33300781 127.59375 C-29.8672463 125.62307697 -34.41405348 123.68271192 -38.96166992 121.74316406 C-44.2853517 119.47017498 -49.60237229 117.18171413 -54.91986084 114.89428711 C-57.17356893 113.92537977 -59.42781717 112.95773636 -61.68212891 111.99023438 C-65.84155049 110.20479515 -69.99949074 108.41594087 -74.15658569 106.62509155 C-75.78199471 105.92539301 -77.40781878 105.22665774 -79.03408813 104.52896118 C-86.78464718 101.20278552 -94.47132728 97.85748422 -101.97802734 94.00366211 C-104.74831669 92.62855229 -107.59264965 91.54904394 -110.5 90.5 C-115.37111187 88.67763109 -119.98552508 86.63306277 -124.5859375 84.2109375 C-127.0336383 82.98312642 -129.52402808 81.90006123 -132.04589844 80.83447266 C-134.15487551 79.93386251 -136.24783594 79.0018345 -138.33984375 78.0625 C-139.09330078 77.72476563 -139.84675781 77.38703125 -140.62304688 77.0390625 C-142.16276531 76.34781338 -143.70183198 75.65511059 -145.24023438 74.9609375 C-150.10232849 72.78524381 -154.99435434 70.82230559 -160 69 C-160 68.34 -160 67.68 -160 67 C-159.154375 66.68546875 -158.30875 66.3709375 -157.4375 66.046875 C-149.88639976 63.2253711 -149.88639976 63.2253711 -142.625 59.75 C-139.07463042 57.8766135 -135.98881707 57.33240142 -132 57 C-132 56.34 -132 55.68 -132 55 C-131.34515625 54.76925781 -130.6903125 54.53851563 -130.015625 54.30078125 C-129.10296875 53.97464844 -128.1903125 53.64851563 -127.25 53.3125 C-126.36828125 52.99925781 -125.4865625 52.68601563 -124.578125 52.36328125 C-114.83678101 48.65178665 -105.30395179 44.4141068 -95.75 40.25 C-82.83601266 34.63285546 -69.88241722 29.11181094 -56.9151001 23.61904907 C-47.35786157 19.5700816 -37.81198676 15.49751602 -28.29296875 11.359375 C-27.43172897 10.98524979 -26.5704892 10.61112457 -25.68315125 10.22566223 C-21.55269694 8.43055908 -17.42426667 6.63099333 -13.29858398 4.82495117 C-11.82670813 4.18397186 -10.3547869 3.54309673 -8.8828125 2.90234375 C-8.21086349 2.60636292 -7.53891449 2.31038208 -6.84660339 2.00543213 C-2.22669518 0 -2.22669518 0 0 0 Z " fill="#B255E0" transform="translate(256,59)"/>
<path d="M0 0 C0 18.81 0 37.62 0 57 C1.485 57.495 1.485 57.495 3 58 C-4.74092959 57.31191737 -11.95566702 54.68220153 -18.8125 51.0625 C-23.48370488 48.60650568 -28.44546092 47.02289042 -33.4375 45.34375 C-36.7009912 44.11278402 -39.67433548 42.6845397 -42.76855469 41.09716797 C-47.12704607 38.95416356 -51.63240558 37.15258422 -56.125 35.3125 C-57.08792969 34.90966797 -58.05085938 34.50683594 -59.04296875 34.09179688 C-63.68307082 32.18661054 -67.96031617 30.50057466 -73 30 C-70.8816155 27.66163663 -69.06997686 26.40351944 -66.14624023 25.23828125 C-65.37791367 24.92785889 -64.6095871 24.61743652 -63.81797791 24.29760742 C-62.98988113 23.97252197 -62.16178436 23.64743652 -61.30859375 23.3125 C-60.44871353 22.96872314 -59.58883331 22.62494629 -58.70289612 22.27075195 C-56.88111746 21.54432038 -55.05782517 20.821675 -53.2331543 20.10253906 C-50.46878509 19.01233809 -47.70969745 17.90957882 -44.95117188 16.8046875 C-43.17478034 16.0982006 -41.39809635 15.3924485 -39.62109375 14.6875 C-38.8071666 14.36241455 -37.99323944 14.0373291 -37.15464783 13.70239258 C-32.21606375 11.76278851 -27.25717265 10.11137422 -22.15557861 8.6517334 C-19.42224866 7.82531843 -16.88712306 6.73014149 -14.3125 5.5 C-13.40242188 5.07332031 -12.49234375 4.64664062 -11.5546875 4.20703125 C-10.71164062 3.80871094 -9.86859375 3.41039062 -9 3 C-2.38339921 0 -2.38339921 0 0 0 Z " fill="#B932FC" transform="translate(447,359)"/>
<path d="M0 0 C4.31953853 0.86390771 7.99306253 2.09005698 12.01171875 3.7734375 C12.68957932 4.05323456 13.36743988 4.33303162 14.06584167 4.62130737 C16.2749758 5.53465965 18.48127947 6.45463471 20.6875 7.375 C22.21293886 8.00776314 23.73849325 8.64024785 25.26416016 9.27246094 C29.84613128 11.17363051 34.42385969 13.08484332 39 15 C39.68608337 15.28709839 40.37216675 15.57419678 41.07904053 15.86999512 C45.34698567 17.65712294 49.61203064 19.45102754 53.875 21.25 C54.94838623 21.70294434 56.02177246 22.15588867 57.12768555 22.62255859 C58.11422119 23.04102051 59.10075684 23.45948242 60.1171875 23.890625 C60.96909668 24.25188477 61.82100586 24.61314453 62.69873047 24.98535156 C64.83611218 25.92774053 66.92132767 26.93521193 69 28 C68 31 68 31 66.24780273 32.03497314 C65.48411377 32.34473083 64.7204248 32.65448853 63.93359375 32.97363281 C63.06758545 33.33120667 62.20157715 33.68878052 61.30932617 34.05718994 C60.36162354 34.43534851 59.4139209 34.81350708 58.4375 35.203125 C57.45821533 35.6040033 56.47893066 36.00488159 55.4699707 36.41790771 C52.31743713 37.70567756 49.15894449 38.9780484 46 40.25 C43.93187702 41.0914295 41.86416362 41.93386643 39.796875 42.77734375 C35.76220246 44.42246117 31.72411399 46.05875658 27.68359375 47.68945312 C24.05949899 49.15553363 20.4477943 50.6459779 16.84765625 52.16992188 C15.67360229 52.66440826 15.67360229 52.66440826 14.47583008 53.16888428 C13.03954379 53.77576525 11.60558664 54.3882026 10.17456055 55.00738525 C6.81244516 56.42367475 4.72418695 57 1 57 C0.67 38.19 0.34 19.38 0 0 Z " fill="#AC1AF4" transform="translate(66,359)"/>
<path d="M0 0 C0.66 1.32 1.32 2.64 2 4 C0.35 3.67 -1.3 3.34 -3 3 C-3 36 -3 69 -3 103 C-3.33 103 -3.66 103 -4 103 C-4 69.34 -4 35.68 -4 1 C-2 0 -2 0 0 0 Z " fill="#AD2BEE" transform="translate(26,125)"/>
<path d="M0 0 C0.66 1.32 1.32 2.64 2 4 C0.35 3.67 -1.3 3.34 -3 3 C-3 7.95 -3 12.9 -3 18 C-3.33 18 -3.66 18 -4 18 C-4 12.39 -4 6.78 -4 1 C-2 0 -2 0 0 0 Z " fill="#B63DF2" transform="translate(26,125)"/>
</svg>
